<svg version="1.1" id="Layer_1" xmlns="http://www.w3.org/2000/svg" xmlns:xlink="http://www.w3.org/1999/xlink" x="0px" y="0px"
	 width="100%" viewBox="0 0 500 500" enable-background="new 0 0 500 500" xml:space="preserve">
<path fill="#000000" opacity="1.000000" stroke="none" 
	d="
M334.000000,501.000000 
	C222.666687,501.000000 111.833389,501.000000 1.000059,501.000000 
	C1.000040,334.333405 1.000040,167.666794 1.000020,1.000149 
	C167.666565,1.000099 334.333130,1.000099 500.999756,1.000050 
	C500.999847,167.666519 500.999847,334.333038 500.999939,500.999786 
	C445.500000,501.000000 390.000000,501.000000 334.000000,501.000000 
M289.346283,113.491386 
	C286.200287,113.327538 283.054321,113.163681 279.609894,112.103668 
	C279.609894,95.813797 279.609894,79.523926 279.609894,63.049751 
	C227.485596,63.049751 175.937057,63.049751 124.242249,63.049751 
	C124.242249,181.436096 124.242249,299.485291 124.242249,417.648254 
	C176.041000,417.648254 227.576492,417.648254 279.582733,417.648254 
	C279.582733,415.183868 279.568573,413.044983 279.585022,410.906372 
	C279.702820,395.591064 279.826904,380.275818 280.871002,364.914062 
	C287.154724,364.315216 293.505005,364.108826 299.711670,363.055847 
	C352.723480,354.062317 394.191650,312.580261 402.957336,259.981476 
	C411.719421,207.404175 386.032806,154.621628 339.232117,129.085480 
	C323.855469,120.695435 307.315796,116.055450 289.346283,113.491386 
z"/>
<path fill="#C797F1" opacity="1.000000" stroke="none" 
	d="
M279.948975,364.960541 
	C279.826904,380.275818 279.702820,395.591064 279.585022,410.906372 
	C279.568573,413.044983 279.582733,415.183868 279.582733,417.648254 
	C227.576492,417.648254 176.041000,417.648254 124.242249,417.648254 
	C124.242249,299.485291 124.242249,181.436096 124.242249,63.049751 
	C175.937057,63.049751 227.485596,63.049751 279.609894,63.049751 
	C279.609894,79.523926 279.609894,95.813797 279.631653,112.827789 
	C279.758057,113.725494 279.862732,113.899078 279.994080,114.040009 
	C280.020782,114.007347 280.084473,113.952026 279.620758,113.863411 
	C252.261383,114.041595 227.253738,121.149940 205.996201,137.630005 
	C163.788223,170.352051 146.698502,213.539673 157.323196,266.182129 
	C164.066223,299.591949 182.804642,325.765228 211.286713,344.632874 
	C232.095978,358.417786 255.221878,364.805664 280.064148,365.054260 
	C280.023407,365.026031 279.948975,364.960541 279.948975,364.960541 
z"/>
<path fill="#C797F2" opacity="1.000000" stroke="none" 
	d="
M289.996613,113.974976 
	C307.315796,116.055450 323.855469,120.695435 339.232117,129.085480 
	C386.032806,154.621628 411.719421,207.404175 402.957336,259.981476 
	C394.191650,312.580261 352.723480,354.062317 299.711670,363.055847 
	C293.505005,364.108826 287.154724,364.315216 280.409973,364.937317 
	C279.948975,364.960541 280.023407,365.026031 279.891785,364.607727 
	C279.729797,363.524475 279.672943,362.859497 279.672882,362.194519 
	C279.665100,281.093781 279.658936,199.993057 279.675476,118.892319 
	C279.675812,117.245529 279.942230,115.598793 280.084473,113.952026 
	C280.084473,113.952026 280.020782,114.007347 280.444550,113.963112 
	C283.911072,113.937576 286.953857,113.956276 289.996613,113.974976 
z"/>
<path fill="#010102" opacity="1.000000" stroke="none" 
	d="
M289.671448,113.733185 
	C286.953857,113.956276 283.911072,113.937576 280.417847,113.995773 
	C279.862732,113.899078 279.758057,113.725494 279.780853,113.275871 
	C283.054321,113.163681 286.200287,113.327538 289.671448,113.733185 
z"/>
<path fill="#010102" opacity="1.000000" stroke="none" 
	d="
M279.620758,113.863411 
	C279.942230,115.598793 279.675812,117.245529 279.675476,118.892319 
	C279.658936,199.993057 279.665100,281.093781 279.672882,362.194519 
	C279.672943,362.859497 279.729797,363.524475 279.932495,364.635986 
	C255.221878,364.805664 232.095978,358.417786 211.286713,344.632874 
	C182.804642,325.765228 164.066223,299.591949 157.323196,266.182129 
	C146.698502,213.539673 163.788223,170.352051 205.996201,137.630005 
	C227.253738,121.149940 252.261383,114.041595 279.620758,113.863411 
z"/>
</svg>